<?xml version="1.0" encoding="UTF-8" standalone="no"?>
<svg
   version="1.1"
   width="291.21756"
   height="257.94229"
   id="svg11"
   viewBox="0 0 291.21756 257.94229"
   sodipodi:docname="75086479719603d9ab88788988444669.cdr"
   xmlns:inkscape="http://www.inkscape.org/namespaces/inkscape"
   xmlns:sodipodi="http://sodipodi.sourceforge.net/DTD/sodipodi-0.dtd"
   xmlns="http://www.w3.org/2000/svg"
   xmlns:svg="http://www.w3.org/2000/svg">
  <defs
     id="defs15" />
  <sodipodi:namedview
     id="namedview13"
     pagecolor="#ffffff"
     bordercolor="#666666"
     borderopacity="1.0"
     inkscape:pageshadow="2"
     inkscape:pageopacity="0.0"
     inkscape:pagecheckerboard="0" />
  <g
     id="Layer1000"
     transform="translate(-157.36224,-255.7254)">
    <path
       d="m 166.9981,336.144 c 3.8031,-8.0954 12.2133,-13.451 20.9392,-14.6757 9.3856,-1.4486 18.8217,0.8565 27.588,4.133 -9.9899,3.1857 -14.3993,13.6881 -17.6899,22.7035 -6.0275,18.6896 0.9079,38.394 9.7004,54.9773 21.387,39.1425 62.9395,65.0973 106.5308,71.8097 24.1128,3.7386 49.3039,0.8696 71.5878,-9.2131 -14.4648,18.5978 -34.8532,31.957 -56.7679,40.1957 -45.2244,16.9 -100.1331,5.0419 -133.4994,-30.113 -17.9391,-18.0581 -30.6527,-41.3417 -35.51,-66.3755 -5.0408,-24.4678 -2.422,-50.3692 7.121,-73.4419 z"
       style="fill:#005a9c;fill-rule:evenodd"
       id="path2" />
    <path
       d="m 411.0947,342.2511 c 12.5038,-1.3689 25.1276,-0.1059 37.4851,1.9742 -11.7542,16.1223 -23.572,32.2193 -36.0102,47.8291 -8.1863,1.0401 -15.6623,4.8048 -22.4937,9.2404 -20.914,12.2274 -35.971,32.0347 -56.543,44.7635 -13.3985,8.6462 -29.547,13.6356 -45.5654,11.5948 -8.9115,-4.0936 -17.1502,-9.5037 -25.3636,-14.8189 12.649,2.4866 26.0082,2.6965 38.3536,-1.3961 9.4765,-3.1858 16.7952,-10.451 23.2967,-17.7555 13.6488,-15.7682 27.3893,-31.4698 40.4207,-47.7646 7.8967,-9.541 16.0173,-19.084 25.98,-26.56 5.8307,-4.5133 13.2412,-6.2383 20.4398,-7.1069 z"
       style="fill:#005a9c;fill-rule:evenodd"
       id="path4" />
    <path
       d="m 423.0992,255.7254 h 11.504 c 4.5405,0.4075 9.0407,1.1722 13.5419,1.961 -11.6605,18.269 -23.3219,36.5248 -35.1014,54.714 7.5022,-13.8333 15.4776,-27.4165 23.0989,-41.1833 -16.8738,-1.5918 -34.4981,2.0791 -48.4888,11.8592 -7.5537,5.1982 -12.6359,13.0425 -17.6889,20.5054 -14.0956,21.7028 -26.4552,44.4871 -40.1826,66.4138 -9.8315,15.7147 -19.9929,31.3649 -32.5371,45.0792 -6.2241,6.5278 -13.0162,13.0969 -21.6897,16.1485 -7.5688,2.2112 -15.5301,2.1729 -23.2966,3.0677 7.5285,-1.4083 15.6501,-1.0522 22.5865,-4.7514 10.7132,-6.095 18.399,-16.1101 25.6653,-25.8236 25.8882,-36.4975 43.3289,-78.0097 66.4662,-116.1525 -27.3227,-18.847 -62.4927,-25.8762 -94.8825,-18.3598 -26.8768,5.975 -51.1328,21.8219 -68.2568,43.2745 -8.6876,-1.0794 -17.4922,0.119 -25.5997,3.3431 11.0027,-16.3593 25.4817,-30.4429 42.5512,-40.3924 23.218,-13.7537 50.8705,-19.7307 77.708,-17.005 25.1377,2.3424 49.3564,12.5563 68.9015,28.496 11.2791,-19.5592 33.9705,-29.3383 55.7006,-31.1944 z"
       style="fill:#005a9c;fill-rule:evenodd"
       id="path6" />
    <path
       d="m 412.5698,392.0546 c 12.1348,-1.8423 24.586,0.7376 35.7075,5.7128 -13.8454,18.4385 -27.7972,36.9054 -43.8416,53.515 -13.319,14.0432 -33.3524,19.0456 -52.0939,19.7563 -22.0732,0.5261 -44.4079,-3.8827 -64.3739,-13.3854 16.0176,2.0405 32.1668,-2.9485 45.5653,-11.5952 20.5718,-12.7284 35.6283,-32.5354 56.543,-44.7635 6.8313,-4.4357 14.3073,-8.1998 22.4936,-9.24 z"
       style="fill:#ec1c2b;fill-rule:evenodd"
       id="path8" />
  </g>
</svg>
